<svg width="56" height="53" viewBox="0 0 56 53" fill="none" xmlns="http://www.w3.org/2000/svg">
<ellipse cx="27.6613" cy="26.1073" rx="27.6613" ry="26.1073" fill="#D9D9D9"/>
<circle cx="27.5" cy="12.5" r="7.5" fill="black"/>
<path d="M24 15H30.5L35 38H20L24 15Z" fill="black"/>
<path d="M13 36C13 33.2386 15.2386 31 18 31H37C39.7614 31 42 33.2386 42 36V39C42 41.7614 39.7614 44 37 44H18C15.2386 44 13 41.7614 13 39V36Z" fill="black"/>
<path d="M18.3379 21.1344C18.3379 19.4179 19.7294 18.0264 21.4459 18.0264H33.8779C35.5945 18.0264 36.986 19.4179 36.986 21.1344C36.986 22.8509 35.5945 24.2424 33.8779 24.2424H21.4459C19.7294 24.2424 18.3379 22.8509 18.3379 21.1344Z" fill="black"/>
</svg>
